<svg xmlns="http://www.w3.org/2000/svg" viewBox="0 0 32 32">
  <defs>
    <linearGradient id="pickGradient" x1="0%" y1="0%" x2="100%" y2="100%">
      <stop offset="0%" style="stop-color:#5BA3E0"/>
      <stop offset="100%" style="stop-color:#2E6DB4"/>
    </linearGradient>
  </defs>
  <!-- Guitar pick shape -->
  <path d="M16 2 C22 2 28 6 28 12 C28 18 22 28 16 30 C10 28 4 18 4 12 C4 6 10 2 16 2 Z" 
        fill="url(#pickGradient)" 
        stroke="#1E5A9E" 
        stroke-width="1"/>
  <!-- Inner highlight -->
  <path d="M16 6 C20 6 24 9 24 13 C24 17 20 24 16 26 C12 24 8 17 8 13 C8 9 12 6 16 6 Z" 
        fill="none" 
        stroke="#8EC5F0" 
        stroke-width="0.75" 
        opacity="0.5"/>
  <!-- Music note accent -->
  <ellipse cx="16" cy="18" rx="3" ry="2.5" fill="#FFFFFF" opacity="0.9"/>
  <rect x="18.5" y="10" width="1.5" height="8.5" rx="0.5" fill="#FFFFFF" opacity="0.9"/>
  <path d="M19.25 10 Q22 8 22 11 Q22 13 19.25 12" fill="#FFFFFF" opacity="0.9"/>
</svg>
